<svg class="svg-icon" style="width: 1em;height: 1em;vertical-align: middle;fill: currentColor;overflow: hidden;" viewBox="0 0 1024 1024" version="1.1" xmlns="http://www.w3.org/2000/svg"><path d="M146.285714 329.142857c0-20.205714 16.310857-36.571429 36.516572-36.571428h658.395428c20.169143 0 36.516571 16.237714 36.516572 36.571428 0 20.205714-16.310857 36.571429-36.516572 36.571429H182.802286A36.461714 36.461714 0 0 1 146.285714 329.142857z m0 182.857143c0-20.205714 16.310857-36.571429 36.516572-36.571429h658.395428c20.169143 0 36.516571 16.237714 36.516572 36.571429 0 20.205714-16.310857 36.571429-36.516572 36.571429H182.802286A36.461714 36.461714 0 0 1 146.285714 512z m0 182.857143c0-20.205714 16.310857-36.571429 36.516572-36.571429h658.395428c20.169143 0 36.516571 16.237714 36.516572 36.571429 0 20.205714-16.310857 36.571429-36.516572 36.571428H182.802286A36.461714 36.461714 0 0 1 146.285714 694.857143z"  /></svg>